<svg width="341" height="100" viewBox="0 0 341 100" fill="none" xmlns="http://www.w3.org/2000/svg">
<path d="M99.7704 49.9976C99.7704 77.6175 77.4366 100 49.8842 100C22.3332 100 0 77.6175 0 49.9976C0 22.3832 22.3332 0 49.8842 0C77.4366 0 99.7704 22.3832 99.7704 49.9976Z" fill="black"/>
<path d="M39.0492 27.0665V14.7278H35.0647V13.5666H44.3524V14.7278H40.3773V27.0665H39.0492Z" fill="#DBD285"/>
<path d="M46.0477 27.0665V12.5665H47.2629V18.8719H47.3006C47.47 18.5067 47.7054 18.1798 48.0067 17.89C48.308 17.6009 48.6583 17.3758 49.0571 17.2154C49.4559 17.055 49.8937 16.9748 50.3711 16.9748C51.6145 16.9748 52.4847 17.3394 52.9804 18.0699C53.476 18.7998 53.7241 19.8323 53.7241 21.1661V27.0665H52.5089V21.1849C52.5089 20.1902 52.3502 19.4151 52.0335 18.8585C51.7154 18.3011 51.0954 18.0228 50.1721 18.0228C49.4942 18.0228 48.9387 18.2081 48.505 18.5794C48.0719 18.9508 47.7565 19.4246 47.5581 20.0001C47.3604 20.5757 47.2616 21.1721 47.2616 21.7888V27.0658H46.0477V27.0665Z" fill="#DBD285"/>
<path d="M63.3709 25.5178V26.7551C62.9371 26.9317 62.4711 27.0665 61.9721 27.1609C61.4731 27.2559 60.9876 27.3031 60.5168 27.3031C58.9721 27.3031 57.8403 26.8387 57.1208 25.9107C56.4012 24.9827 56.0421 23.7257 56.0421 22.1393C56.0421 21.3905 56.1383 20.7044 56.3293 20.081C56.5209 19.4576 56.8034 18.909 57.1773 18.4339C57.5512 17.9587 57.9923 17.5968 58.5007 17.3482C59.0098 17.1001 59.572 16.9755 60.1873 16.9755C61.0851 16.9755 61.8248 17.1925 62.4058 17.6272C62.9862 18.0619 63.4152 18.6462 63.6916 19.3828C63.9673 20.1188 64.1059 20.9464 64.1059 21.8656V22.4884H57.3703C57.3703 23.194 57.496 23.8322 57.7475 24.4051C57.9984 24.9779 58.3696 25.4295 58.8591 25.7597C59.3487 26.09 59.9331 26.2557 60.6103 26.2557C61.038 26.2557 61.5303 26.1796 62.0891 26.0286C62.6479 25.8777 63.0756 25.7078 63.3709 25.5178ZM57.3703 21.4404H62.777C62.777 20.8304 62.691 20.267 62.5181 19.7508C62.3453 19.2345 62.0689 18.818 61.6896 18.4999C61.3097 18.1825 60.8342 18.0234 60.2626 18.0234C59.6971 18.0234 59.1947 18.1885 58.7556 18.5188C58.3158 18.849 57.9748 19.2817 57.7328 19.8175C57.4913 20.3513 57.3703 20.8924 57.3703 21.4404Z" fill="#DBD285"/>
<path d="M9.51697 41.0671C9.51697 39.1558 9.8485 37.3955 10.5116 35.784C11.174 34.174 12.1827 32.8867 13.5371 31.9216C14.8908 30.9559 16.5458 30.474 18.5007 30.474C20.4556 30.474 22.1126 30.9565 23.471 31.9216C24.8301 32.8874 25.8408 34.1747 26.5032 35.784C27.1656 37.3955 27.4978 39.1558 27.4978 41.0671C27.4783 42.6435 27.2759 44.0824 26.8899 45.3818C26.5039 46.6818 25.9343 47.7992 25.1805 48.7367C24.4266 49.6728 23.4878 50.3966 22.3628 50.9082C21.2377 51.4197 19.9506 51.6758 18.5007 51.6758C17.0602 51.6758 15.7778 51.4197 14.6527 50.9082C13.5277 50.3966 12.5882 49.6708 11.835 48.7293C11.0818 47.7884 10.5122 46.6704 10.1256 45.375C9.73822 44.079 9.5358 42.6428 9.51697 41.0671ZM18.4993 32.2364C16.9829 32.2364 15.7005 32.6549 14.6514 33.4906C13.6023 34.3263 12.8202 35.4235 12.3058 36.7801C11.7906 38.1375 11.5331 39.5669 11.5331 41.0665C11.5331 42.5572 11.7906 43.986 12.3058 45.3528C12.8209 46.7189 13.6023 47.8208 14.6514 48.6565C15.7005 49.4922 16.9829 49.9107 18.4993 49.9107C20.0151 49.9107 21.3029 49.4895 22.3614 48.6491C23.4199 47.808 24.204 46.7067 24.7144 45.3447C25.2242 43.9826 25.4797 42.5566 25.4797 41.0658C25.4797 39.575 25.2242 38.151 24.7144 36.7936C24.204 35.4363 23.4199 34.3371 22.3614 33.496C21.3029 32.6569 20.0158 32.2364 18.4993 32.2364Z" fill="#DBD285"/>
<path d="M43.2306 36.3508V50.0839C43.2306 52.3396 42.6684 54.1647 41.544 55.5598C40.4196 56.9548 38.6509 57.6524 36.2401 57.6524C35.0007 57.6524 33.495 57.3868 31.7224 56.8564L31.8784 55.0004C33.2408 55.7074 34.7041 56.0605 36.267 56.0605C37.4203 56.0605 38.345 55.8678 39.041 55.4816C39.737 55.0954 40.2562 54.5536 40.5991 53.858C40.9421 53.1612 41.1634 52.3794 41.2636 51.5114C41.3638 50.6433 41.4142 49.5987 41.4142 48.3782H41.357C40.8809 49.41 40.2595 50.1587 39.4929 50.6217C38.7263 51.0854 37.8386 51.3166 36.8292 51.3166C35.686 51.3166 34.7149 51.0969 33.9153 50.6568C33.1151 50.2174 32.4607 49.625 31.951 48.8796C31.4413 48.1335 31.0774 47.3234 30.8582 46.45C30.639 45.5752 30.53 44.7031 30.53 43.8331C30.53 42.6772 30.6511 41.6164 30.8945 40.6507C31.1373 39.6856 31.5018 38.8566 31.9873 38.1638C32.4728 37.4716 33.1063 36.9358 33.8871 36.5584C34.6678 36.181 35.5965 35.9916 36.6732 35.9916C37.7969 35.9916 38.694 36.1258 39.3658 36.3933C40.0376 36.6609 40.6919 37.2108 41.3295 38.0418H41.3866V36.3502H43.2306V36.3508V36.3508ZM32.5461 43.833C32.5461 44.8756 32.6941 45.8407 32.9893 46.729C33.2845 47.6173 33.7573 48.3397 34.4056 48.8937C35.0538 49.4484 35.8689 49.7247 36.8514 49.7247C38.3867 49.7247 39.5265 49.1377 40.2696 47.9623C41.0127 46.787 41.3853 45.4101 41.3853 43.833C41.3853 39.6667 39.9118 37.5835 36.965 37.5835C35.8783 37.5835 35.0034 37.8848 34.3403 38.4866C33.6773 39.0891 33.2126 39.8608 32.9456 40.8023C32.6793 41.7431 32.5461 42.754 32.5461 43.833Z" fill="#DBD285"/>
<path d="M59.5222 29.298V51.3166H57.6769V48.9369H57.6204C57.1255 49.8831 56.4933 50.5766 55.728 51.016C54.9607 51.4547 54.0394 51.6758 52.9641 51.6758C51.6393 51.6758 50.5163 51.3361 49.5923 50.6575C48.6683 49.9795 47.9756 49.0474 47.5143 47.8626C47.0523 46.6771 46.8217 45.3346 46.8217 43.8337C46.8217 42.6779 46.9427 41.6171 47.1861 40.6513C47.4289 39.6862 47.7934 38.8573 48.2789 38.1645C48.7651 37.4723 49.398 36.9365 50.1787 36.5591C50.9595 36.1817 51.8882 35.9923 52.9648 35.9923C53.8599 35.9923 54.638 36.1648 55.3003 36.5086C55.9614 36.8536 56.4859 37.2499 56.8719 37.6988C57.2566 38.1483 57.5074 38.5399 57.6218 38.8741H57.6783V29.2987H59.5222V29.298V29.298ZM48.8378 43.833C48.8378 45.5631 49.174 47.037 49.8465 48.2555C50.519 49.474 51.6555 50.0833 53.2573 50.0833C54.2876 50.0833 55.1315 49.7705 55.7899 49.1438C56.4483 48.5183 56.9271 47.7224 57.227 46.7573C57.5276 45.7922 57.6776 44.817 57.6776 43.8324C57.6776 42.8383 57.5276 41.8644 57.227 40.9088C56.9277 39.9531 56.4483 39.1592 55.7899 38.5291C55.1316 37.8989 54.2883 37.5828 53.2573 37.5828C52.1713 37.5828 51.2957 37.8841 50.6333 38.4859C49.9702 39.0884 49.5049 39.8601 49.2386 40.8016C48.9723 41.7431 48.8378 42.7541 48.8378 43.833Z" fill="#DBD285"/>
<path d="M73.9988 48.9652V50.8428C73.3404 51.1104 72.6329 51.3159 71.8744 51.4595C71.1165 51.603 70.3794 51.6744 69.6646 51.6744C67.319 51.6744 65.6001 50.9695 64.508 49.5596C63.4165 48.1497 62.8705 46.2411 62.8705 43.8324C62.8705 42.6947 63.0157 41.6542 63.3063 40.7073C63.5974 39.7617 64.0258 38.9274 64.5934 38.2062C65.161 37.4851 65.8308 36.9345 66.6028 36.5578C67.3748 36.181 68.2288 35.991 69.1636 35.991C70.5267 35.991 71.6498 36.3212 72.5321 36.981C73.4144 37.6408 74.0647 38.5291 74.4843 39.6465C74.9039 40.7652 75.1144 42.0215 75.1144 43.4172V44.3628H64.8873C64.8873 45.4337 65.0776 46.4028 65.4595 47.2729C65.8402 48.143 66.403 48.8284 67.1475 49.3304C67.8912 49.8319 68.7783 50.0826 69.8078 50.0826C70.4561 50.0826 71.2046 49.9673 72.0539 49.7382C72.9019 49.5104 73.5502 49.2523 73.9988 48.9652ZM64.8873 42.7723H73.0976C73.0976 41.8456 72.9665 40.9903 72.7042 40.2065C72.4413 39.4234 72.0216 38.7899 71.4453 38.3073C70.8683 37.8248 70.1454 37.5835 69.2779 37.5835C68.4198 37.5835 67.6572 37.8349 66.9894 38.3363C66.3223 38.8377 65.8045 39.4948 65.4373 40.3069C65.0702 41.1197 64.8873 41.9413 64.8873 42.7723Z" fill="#DBD285"/>
<path d="M78.6323 51.3166V39.8635C78.6323 38.3147 78.5939 37.1441 78.5179 36.3508H80.3061V39.017H80.3632C80.7829 38.1287 81.3451 37.4022 82.0512 36.8388C82.7566 36.2747 83.8057 35.9923 85.1984 35.9923C86.9522 35.9923 88.24 36.5086 89.0605 37.541C89.8802 38.5729 90.2905 39.9727 90.2905 41.7404V51.3166H88.4452V42.2142C88.4452 40.7322 88.1587 39.5905 87.5871 38.7879C87.0154 37.9852 86.1183 37.5835 84.8978 37.5835C83.8588 37.5835 83.0054 37.849 82.3376 38.3794C81.6699 38.9098 81.1931 39.5858 80.9073 40.408C80.6208 41.2302 80.4775 42.1044 80.4775 43.0317V51.3173H78.6323V51.3166V51.3166Z" fill="#DBD285"/>
<path d="M27.0083 80.6751V61.9393H20.9573V60.1763H35.0613V61.9393H29.0251V80.6751H27.0083V80.6751Z" fill="#DBD285"/>
<path d="M34.941 80.6752V69.0495C34.941 68.1229 34.9363 67.4563 34.9269 67.0499C34.9175 66.6435 34.8845 66.1967 34.8267 65.7094H36.672V68.5764H36.7291C36.9773 67.9651 37.2772 67.4226 37.6302 66.9495C37.9833 66.4764 38.4123 66.0922 38.918 65.7957C39.4231 65.4998 39.9718 65.3516 40.5629 65.3516C41.0014 65.3516 41.4304 65.4088 41.8501 65.5234V67.4583C41.4688 67.3438 41.0202 67.2865 40.5051 67.2865C39.5804 67.2865 38.8407 67.5823 38.2879 68.1747C37.7352 68.7678 37.3465 69.5105 37.1225 70.4042C36.8986 71.2978 36.7863 72.2562 36.7863 73.2786V80.6759H34.941V80.6752V80.6752Z" fill="#DBD285"/>
<path d="M56.3536 65.7094V77.1491C56.3536 78.6971 56.3919 79.8725 56.4679 80.6752H54.6798V78.009H54.6226C54.2319 78.8784 53.6737 79.5996 52.9494 80.1738C52.2245 80.7473 51.17 81.0337 49.7888 81.0337C48.5965 81.0337 47.6234 80.7877 46.8702 80.2951C46.117 79.8024 45.5662 79.1271 45.2179 78.2665C44.8695 77.4065 44.696 76.4077 44.696 75.2708V65.7088H46.5413V74.797C46.5413 76.2783 46.8278 77.4227 47.3994 78.2301C47.9717 79.0381 48.8681 79.4418 50.0887 79.4418C51.1284 79.4418 51.9811 79.175 52.6495 78.6392C53.3166 78.104 53.7934 77.4254 54.0799 76.6032C54.3657 75.7816 54.5089 74.9068 54.5089 73.9795V65.7087H56.3536V65.7094V65.7094Z" fill="#DBD285"/>
<path d="M59.6722 80.3166L59.8437 78.4963C61.1026 79.1278 62.3992 79.4425 63.7341 79.4425C64.344 79.4425 64.8995 79.3354 65.4011 79.1197C65.9015 78.9047 66.3023 78.5994 66.6022 78.2025C66.9028 77.8055 67.0528 77.3304 67.0528 76.7764C67.0528 75.9926 66.7616 75.3786 66.1806 74.9345C65.5989 74.4904 64.7118 73.9835 63.5202 73.4147C62.3279 72.8459 61.4221 72.2818 60.802 71.7231C60.182 71.1644 59.8727 70.4022 59.8727 69.4364C59.8727 68.5097 60.0986 67.7374 60.5519 67.1207C61.0051 66.5047 61.6009 66.0552 62.34 65.7735C63.0791 65.4918 63.8773 65.3509 64.7354 65.3509C65.2021 65.3509 65.8013 65.4102 66.5302 65.5302C67.2599 65.6494 67.8914 65.8146 68.4253 66.0242L68.2538 67.6437C67.7864 67.4246 67.2579 67.2521 66.6661 67.1274C66.075 67.0034 65.4986 66.9414 64.9358 66.9414C63.8961 66.9414 63.1006 67.1274 62.5471 67.5008C61.9937 67.8735 61.7173 68.5185 61.7173 69.4357C61.7173 70.0281 61.913 70.4513 62.3037 70.7048C62.6951 70.9575 63.5861 71.4164 64.9788 72.081C66.3709 72.7448 67.4011 73.4187 68.0689 74.1021C68.736 74.7855 69.0702 75.6765 69.0702 76.7757C69.0702 78.2186 68.5356 79.2888 67.4677 79.9871C66.3998 80.6839 65.1933 81.0337 63.849 81.0337C62.2465 81.0337 60.8545 80.7945 59.6722 80.3166Z" fill="#DBD285"/>
<path d="M78.8246 65.7094V67.3006H75.4346V76.9792C75.4346 77.7145 75.5913 78.3089 75.906 78.7625C76.2214 79.2154 76.7264 79.4425 77.4225 79.4425C77.9665 79.4425 78.5334 79.3225 79.1245 79.084L79.2388 80.6179C78.524 80.8949 77.7701 81.0337 76.9793 81.0337C76.1972 81.0337 75.5725 80.9043 75.1058 80.6468C74.6384 80.3894 74.2948 80.0315 74.0762 79.5726C73.8563 79.1143 73.7204 78.6082 73.6687 78.0548C73.6162 77.5015 73.59 76.8282 73.59 76.0357V67.3006H70.658V65.7094H73.59V62.0971L75.4353 61.4521V65.7094H78.8246V65.7094V65.7094Z" fill="#DBD285"/>
<path d="M124.725 54.9704V40.0469H126.148L132.192 53.8175H131.397L137.379 40.0469H138.801V54.9704H137.211V42.3103L137.86 42.3945L132.381 54.9704H131.167L125.604 42.3945L126.294 42.3103L126.315 54.9704H124.725Z" fill="#686015"/>
<path d="M146.309 55.1176C145.375 55.1176 144.556 54.8969 143.852 54.4574C143.147 54.0169 142.604 53.3886 142.221 52.5706C141.837 51.7535 141.645 50.7931 141.645 49.6886C141.645 48.5849 141.84 47.6207 142.231 46.7959C142.621 45.9716 143.169 45.3288 143.873 44.8675C144.577 44.4067 145.389 44.1758 146.309 44.1758C147.271 44.1758 148.087 44.4139 148.757 44.8888C149.425 45.3636 149.878 46.0413 150.116 46.9218L149.865 47.0892V44.4275H151.538V54.9704H149.865V52.2462L150.116 52.3721C149.878 53.2521 149.425 53.9298 148.757 54.4051C148.087 54.8804 147.271 55.1176 146.309 55.1176ZM146.644 53.7129C147.676 53.7129 148.471 53.3605 149.028 52.6548C149.586 51.949 149.865 50.9461 149.865 49.6464C149.865 48.3468 149.583 47.3482 149.018 46.6492C148.453 45.9508 147.661 45.6013 146.644 45.6013C145.613 45.6013 144.807 45.9609 144.228 46.6807C143.65 47.4005 143.361 48.4029 143.361 49.6886C143.361 50.9742 143.65 51.9665 144.228 52.6654C144.807 53.3644 145.613 53.7129 146.644 53.7129Z" fill="#686015"/>
<path d="M154.821 54.9704V39.5439H156.516V54.9704H154.821ZM161.912 54.9704L156.18 49.5835L161.472 44.4483H163.626L157.77 50.0656L157.833 48.9968L164.129 54.9704H161.912V54.9704Z" fill="#686015"/>
<path d="M165.426 39.9631H167.496V41.8911H165.426V39.9631ZM165.593 54.9704V44.4275H167.287V54.9704H165.593V54.9704Z" fill="#686015"/>
<path d="M170.57 54.9705V47.3831C170.57 46.8937 170.559 46.4014 170.538 45.9053C170.518 45.4091 170.472 44.9169 170.403 44.4275H172.013L172.201 46.6071L171.992 46.7751C172.284 45.9227 172.772 45.2765 173.456 44.836C174.139 44.396 174.926 44.1758 175.819 44.1758C178.343 44.1758 179.605 45.5664 179.605 48.3468V54.9705H177.91V48.431C177.91 47.4528 177.715 46.7369 177.325 46.2823C176.935 45.8283 176.321 45.6013 175.485 45.6013C174.508 45.6013 173.727 45.9019 173.142 46.5026C172.557 47.1033 172.264 47.9141 172.264 48.9339V54.9705H170.57V54.9705Z" fill="#686015"/>
<path d="M187.427 59.6444C185.837 59.6444 184.457 59.2813 183.286 58.5553L183.579 57.1719C184.233 57.5485 184.855 57.8215 185.44 57.9889C186.025 58.1564 186.687 58.2407 187.427 58.2407C188.431 58.2407 189.194 57.9715 189.716 57.4333C190.24 56.895 190.501 56.0954 190.501 55.0334V52.1833L190.732 51.9103C190.564 52.4699 190.303 52.9549 189.947 53.3673C189.592 53.7797 189.155 54.0972 188.639 54.3209C188.123 54.5445 187.538 54.6558 186.883 54.6558C185.949 54.6558 185.129 54.4361 184.426 53.9956C183.721 53.5561 183.171 52.9452 182.773 52.162C182.376 51.3798 182.177 50.464 182.177 49.416C182.177 48.3681 182.376 47.4528 182.773 46.6701C183.171 45.8878 183.721 45.2765 184.426 44.836C185.129 44.396 185.949 44.1758 186.883 44.1758C187.859 44.1758 188.685 44.4168 189.361 44.8989C190.037 45.3811 190.494 46.0553 190.732 46.9218L190.48 46.6914V44.4275H192.174V54.8872C192.174 56.4661 191.773 57.654 190.972 58.4498C190.169 59.2465 188.988 59.6444 187.427 59.6444ZM187.217 53.2308C188.236 53.2308 189.033 52.892 189.612 52.2143C190.191 51.5366 190.48 50.6039 190.48 49.416C190.48 48.2287 190.191 47.2959 189.612 46.6178C189.033 45.9401 188.236 45.6013 187.217 45.6013C186.186 45.6013 185.373 45.9401 184.781 46.6178C184.188 47.2959 183.892 48.2287 183.892 49.416C183.892 50.6179 184.188 51.5541 184.781 52.225C185.373 52.8958 186.186 53.2308 187.217 53.2308Z" fill="#686015"/>
<path d="M200.896 59.4982V47.3831C200.896 46.8937 200.885 46.4014 200.864 45.9053C200.844 45.4091 200.798 44.9169 200.729 44.4275H202.339L202.527 46.6071L202.359 46.9218C202.597 46.0413 203.05 45.3636 203.719 44.8888C204.389 44.4139 205.196 44.1758 206.145 44.1758C207.065 44.1758 207.878 44.4067 208.582 44.8675C209.285 45.3288 209.837 45.9716 210.234 46.7959C210.631 47.6207 210.83 48.5849 210.83 49.6886C210.83 50.7931 210.631 51.7535 210.234 52.5706C209.837 53.3886 209.289 54.0169 208.592 54.4574C207.894 54.8969 207.079 55.1176 206.145 55.1176C205.196 55.1176 204.389 54.8804 203.719 54.4051C203.05 53.9298 202.597 53.2521 202.359 52.3721L202.59 52.162V59.4982H200.896V59.4982ZM205.831 53.7129C206.849 53.7129 207.644 53.3644 208.216 52.6654C208.787 51.9665 209.073 50.9742 209.073 49.6886C209.073 48.4029 208.787 47.4005 208.216 46.6807C207.644 45.9609 206.849 45.6013 205.831 45.6013C204.786 45.6013 203.984 45.9508 203.427 46.6492C202.868 47.3482 202.59 48.3468 202.59 49.6464C202.59 50.9461 202.868 51.949 203.427 52.6548C203.984 53.3605 204.786 53.7129 205.831 53.7129Z" fill="#686015"/>
<path d="M213.444 54.9704V39.5439H215.138V46.5655L214.866 46.7751C215.158 45.9227 215.646 45.2765 216.33 44.836C217.013 44.396 217.8 44.1758 218.693 44.1758C221.217 44.1758 222.479 45.5664 222.479 48.3468V54.9704H220.784V48.431C220.784 47.4527 220.589 46.7368 220.199 46.2823C219.809 45.8283 219.195 45.6013 218.359 45.6013C217.382 45.6013 216.602 45.9019 216.016 46.5026C215.431 47.1033 215.138 47.914 215.138 48.9339V54.9704H213.444V54.9704Z" fill="#686015"/>
<path d="M229.025 55.5155L224.299 44.4275H226.076L229.883 53.7342L229.025 55.5155ZM225.177 59.7286L224.821 58.4081C225.463 58.2542 226.003 58.0761 226.442 57.8738C226.882 57.6714 227.251 57.4091 227.551 57.0877C227.851 56.7663 228.111 56.3403 228.335 55.8088L229.004 54.2579L229.381 53.7342L233.229 44.4275H234.924L230.009 55.9347C229.632 56.7866 229.206 57.4681 228.733 57.9783C228.258 58.4885 227.725 58.8757 227.133 59.1419C226.54 59.4072 225.888 59.6028 225.177 59.7286Z" fill="#686015"/>
<path d="M240.151 55.1176C238.381 55.1176 236.98 54.6636 235.948 53.7545L236.512 52.497C237.07 52.9307 237.646 53.2482 238.238 53.4515C238.831 53.6538 239.49 53.7545 240.214 53.7545C241.009 53.7545 241.612 53.619 242.023 53.346C242.435 53.074 242.641 52.679 242.641 52.162C242.641 51.7428 242.502 51.4108 242.222 51.1668C241.943 50.9219 241.483 50.723 240.842 50.569L239.065 50.1494C238.186 49.9543 237.506 49.6048 237.025 49.1014C236.544 48.5985 236.304 47.9978 236.304 47.2988C236.304 46.6841 236.471 46.1429 236.805 45.6744C237.14 45.2068 237.607 44.8399 238.207 44.5741C238.806 44.3089 239.518 44.1758 240.34 44.1758C241.079 44.1758 241.776 44.2949 242.431 44.532C243.087 44.7702 243.638 45.1124 244.084 45.5592L243.519 46.7959C243.017 46.3767 242.504 46.066 241.982 45.8632C241.459 45.6608 240.912 45.5592 240.34 45.5592C239.587 45.5592 239.005 45.7058 238.593 45.9997C238.183 46.293 237.977 46.6914 237.977 47.1943C237.977 47.6275 238.105 47.9697 238.363 48.2214C238.621 48.4726 239.037 48.6687 239.608 48.8081L241.386 49.2481C242.376 49.4582 243.104 49.8038 243.571 50.2859C244.038 50.768 244.272 51.3798 244.272 52.1204C244.272 53.0285 243.902 53.7545 243.163 54.2996C242.424 54.8446 241.421 55.1176 240.151 55.1176Z" fill="#686015"/>
<path d="M246.803 39.9631H248.873V41.8911H246.803V39.9631ZM246.97 54.9704V44.4275H248.665V54.9704H246.97V54.9704Z" fill="#686015"/>
<path d="M256.36 55.1176C255.328 55.1176 254.435 54.894 253.683 54.4467C252.929 53.9995 252.348 53.3712 251.936 52.5599C251.525 51.7496 251.319 50.7931 251.319 49.6886C251.319 48.5985 251.529 47.6381 251.947 46.8066C252.365 45.9755 252.957 45.3288 253.724 44.8675C254.491 44.4067 255.397 44.1758 256.444 44.1758C257.155 44.1758 257.841 44.2982 258.503 44.5427C259.166 44.7876 259.713 45.1264 260.145 45.5592L259.58 46.8167C259.064 46.4116 258.559 46.1081 258.065 45.9053C257.569 45.7029 257.057 45.6013 256.527 45.6013C255.467 45.6013 254.628 45.9575 254.006 46.6701C253.386 47.3831 253.076 48.3889 253.076 49.6886C253.076 50.9742 253.382 51.9665 253.997 52.6654C254.61 53.3644 255.454 53.7129 256.527 53.7129C257.043 53.7129 257.552 53.6122 258.054 53.4089C258.556 53.2066 259.064 52.9026 259.58 52.497L260.145 53.7545C259.699 54.1747 259.138 54.5067 258.462 54.7507C257.785 54.9946 257.085 55.1176 256.36 55.1176Z" fill="#686015"/>
<path d="M265.855 55.1176C264.084 55.1176 262.684 54.6636 261.652 53.7545L262.216 52.497C262.774 52.9307 263.349 53.2482 263.941 53.4515C264.535 53.6538 265.193 53.7545 265.918 53.7545C266.713 53.7545 267.316 53.619 267.727 53.346C268.139 53.074 268.344 52.679 268.344 52.162C268.344 51.7428 268.205 51.4108 267.926 51.1668C267.647 50.9219 267.187 50.723 266.546 50.569L264.768 50.1494C263.889 49.9543 263.21 49.6048 262.729 49.1014C262.248 48.5985 262.008 47.9978 262.008 47.2988C262.008 46.6841 262.175 46.1429 262.509 45.6744C262.844 45.2068 263.311 44.8399 263.911 44.5741C264.509 44.3089 265.221 44.1758 266.043 44.1758C266.782 44.1758 267.48 44.2949 268.135 44.532C268.791 44.7702 269.341 45.1124 269.788 45.5592L269.223 46.7959C268.721 46.3767 268.208 46.066 267.686 45.8632C267.163 45.6608 266.615 45.5592 266.043 45.5592C265.291 45.5592 264.708 45.7058 264.297 45.9997C263.886 46.293 263.681 46.6914 263.681 47.1943C263.681 47.6275 263.809 47.9697 264.067 48.2214C264.325 48.4726 264.74 48.6687 265.312 48.8081L267.09 49.2481C268.08 49.4582 268.808 49.8038 269.275 50.2859C269.742 50.768 269.976 51.3798 269.976 52.1204C269.976 53.0285 269.606 53.7545 268.867 54.2996C268.128 54.8446 267.124 55.1176 265.855 55.1176Z" fill="#686015"/>
<path d="M278.132 54.9705V47.3831C278.132 46.8937 278.121 46.4014 278.1 45.9053C278.08 45.4091 278.034 44.9169 277.965 44.4275H279.575L279.763 46.6071L279.554 46.7543C279.805 45.93 280.241 45.2939 280.861 44.8467C281.481 44.3994 282.217 44.1758 283.067 44.1758C284.085 44.1758 284.876 44.4275 285.442 44.9304C286.006 45.4333 286.365 46.202 286.519 47.2359L286.016 46.9639C286.239 46.1115 286.689 45.4333 287.366 44.9304C288.042 44.4275 288.853 44.1758 289.802 44.1758C290.959 44.1758 291.831 44.5219 292.417 45.2136C293.002 45.9053 293.295 46.9498 293.295 48.3468V54.9705H291.601V48.431C291.601 47.4528 291.426 46.7369 291.078 46.2823C290.729 45.8283 290.179 45.6013 289.425 45.6013C288.547 45.6013 287.854 45.9019 287.345 46.5026C286.835 47.1033 286.581 47.9208 286.581 48.9547V54.9705H284.887V48.431C284.887 47.4528 284.709 46.7369 284.354 46.2823C283.998 45.8283 283.444 45.6013 282.691 45.6013C281.799 45.6013 281.098 45.9019 280.589 46.5026C280.08 47.1033 279.826 47.9208 279.826 48.9547V54.9705H278.132V54.9705Z" fill="#686015"/>
<path d="M300.551 55.1176C299.617 55.1176 298.798 54.8969 298.094 54.4574C297.39 54.0169 296.846 53.3886 296.463 52.5706C296.079 51.7535 295.888 50.7931 295.888 49.6886C295.888 48.5849 296.083 47.6207 296.473 46.7959C296.863 45.9716 297.411 45.3288 298.115 44.8675C298.819 44.4067 299.632 44.1758 300.551 44.1758C301.514 44.1758 302.33 44.4139 302.999 44.8888C303.668 45.3636 304.121 46.0413 304.358 46.9218L304.107 47.0892V44.4275H305.78V54.9704H304.107V52.2462L304.358 52.3721C304.121 53.2521 303.668 53.9298 302.999 54.4051C302.33 54.8804 301.514 55.1176 300.551 55.1176ZM300.887 53.7129C301.918 53.7129 302.713 53.3605 303.271 52.6548C303.828 51.949 304.107 50.9461 304.107 49.6464C304.107 48.3468 303.825 47.3482 303.26 46.6492C302.696 45.9508 301.904 45.6013 300.887 45.6013C299.855 45.6013 299.049 45.9609 298.471 46.6807C297.892 47.4005 297.603 48.4029 297.603 49.6886C297.603 50.9742 297.892 51.9665 298.471 52.6654C299.049 53.3644 299.855 53.7129 300.887 53.7129Z" fill="#686015"/>
<path d="M307.58 45.7688V44.4275H314.335V45.7688H307.58ZM314.294 53.4612V54.9075C314.056 54.9772 313.822 55.0295 313.592 55.0653C313.362 55.1002 313.108 55.1176 312.829 55.1176C311.852 55.1176 311.076 54.8378 310.497 54.2792C309.919 53.7207 309.629 52.8823 309.629 51.7641V41.7236L311.323 41.1157V51.5328C311.323 52.0923 311.403 52.526 311.564 52.8329C311.724 53.1398 311.943 53.3537 312.222 53.4719C312.502 53.5909 312.815 53.65 313.163 53.65C313.373 53.65 313.561 53.6364 313.728 53.6084C313.896 53.5803 314.084 53.5319 314.294 53.4612Z" fill="#686015"/>
<path d="M314.962 45.7688V44.4275H321.717V45.7688H314.962ZM321.675 53.4612V54.9075C321.438 54.9772 321.204 55.0295 320.974 55.0653C320.744 55.1002 320.49 55.1176 320.211 55.1176C319.234 55.1176 318.458 54.8378 317.879 54.2792C317.301 53.7207 317.011 52.8823 317.011 51.7641V41.7236L318.705 41.1157V51.5328C318.705 52.0923 318.785 52.526 318.946 52.8329C319.106 53.1398 319.325 53.3537 319.604 53.4719C319.884 53.5909 320.197 53.65 320.545 53.65C320.755 53.65 320.943 53.6364 321.11 53.6084C321.277 53.5803 321.466 53.5319 321.675 53.4612Z" fill="#686015"/>
<path d="M332.383 53.7129C331.924 54.1466 331.334 54.4883 330.617 54.74C329.898 54.9917 329.163 55.1176 328.409 55.1176C327.322 55.1176 326.385 54.9007 325.596 54.468C324.809 54.0343 324.202 53.4089 323.777 52.5919C323.351 51.7738 323.139 50.7999 323.139 49.6677C323.139 48.5777 323.349 47.6207 323.767 46.7959C324.185 45.9716 324.767 45.3288 325.513 44.8675C326.259 44.4067 327.12 44.1758 328.096 44.1758C329.03 44.1758 329.832 44.3825 330.501 44.7944C331.17 45.2068 331.683 45.7968 332.039 46.5655C332.394 47.3342 332.572 48.2563 332.572 49.3323V49.6464H324.624V48.5356H331.61L331.066 49.311C331.094 48.0815 330.853 47.1386 330.344 46.4818C329.835 45.8249 329.092 45.4963 328.117 45.4963C327.098 45.4963 326.301 45.8564 325.722 46.5757C325.143 47.2959 324.855 48.2911 324.855 49.5627C324.855 50.9326 325.158 51.9665 325.764 52.6654C326.37 53.3644 327.26 53.7129 328.431 53.7129C329.044 53.7129 329.633 53.6122 330.198 53.4089C330.762 53.2066 331.302 52.8958 331.818 52.4767L332.383 53.7129Z" fill="#686015"/>
<path d="M335.144 54.9705V47.3831C335.144 46.8937 335.134 46.4014 335.112 45.9053C335.092 45.4091 335.047 44.9169 334.977 44.4275H336.587L336.817 47.0263L336.587 46.9639C336.782 46.0413 337.204 45.3462 337.853 44.8781C338.501 44.4101 339.229 44.1758 340.038 44.1758C340.219 44.1758 340.39 44.1864 340.551 44.2072C340.71 44.2285 340.861 44.26 341 44.3016L340.958 45.853C340.638 45.7412 340.268 45.685 339.849 45.685C339.125 45.685 338.542 45.8457 338.103 46.1671C337.664 46.4885 337.344 46.8976 337.141 47.3932C336.939 47.8894 336.838 48.4097 336.838 48.9547V54.9705H335.144V54.9705Z" fill="#686015"/>
</svg>
